<svg id="Layer_1" data-name="Layer 1" xmlns="http://www.w3.org/2000/svg" viewBox="0 0 64 64" fill='white'><title>desk chair</title><path d="M41.89,56H22.11A2.11,2.11,0,0,0,20,57.66a2,2,0,0,0,3.74,1.39A2.19,2.19,0,0,1,25.62,58h3.17a1.61,1.61,0,0,1,1.41.93,2,2,0,0,0,3.61,0A1.61,1.61,0,0,1,35.21,58h3.17a2.19,2.19,0,0,1,1.88,1.05A2,2,0,0,0,44,57.66,2.11,2.11,0,0,0,41.89,56Z"/><path d="M20,34.83V37.1A2.86,2.86,0,0,0,22.86,40H31L30,54H34L33,40h8.1A2.86,2.86,0,0,0,44,37.1V34.83A2.86,2.86,0,0,0,41.14,32H22.86A2.86,2.86,0,0,0,20,34.83Z"/><path d="M39.59,30a2.23,2.23,0,0,0,2.23-2.4L40.16,6A2.23,2.23,0,0,0,37.93,4H26.07A2.23,2.23,0,0,0,23.84,6L22.18,27.57A2.23,2.23,0,0,0,24.41,30ZM36,10a1,1,0,1,1-1,1A1,1,0,0,1,36,10Zm0,6a1,1,0,1,1-1,1A1,1,0,0,1,36,16Zm0,6a1,1,0,1,1-1,1A1,1,0,0,1,36,22ZM28,10a1,1,0,1,1-1,1A1,1,0,0,1,28,10Zm0,6a1,1,0,1,1-1,1A1,1,0,0,1,28,16Zm0,6a1,1,0,1,1-1,1A1,1,0,0,1,28,22Z"/><path d="M18.62,24H14a2,2,0,0,0,0,4h4.62A1.38,1.38,0,0,0,20,26.59V25.34A1.38,1.38,0,0,0,18.62,24Z"/><path d="M14.74,30a.74.74,0,0,0-.74.74V38a2,2,0,0,0,4,0V30.71a.74.74,0,0,0-.74-.74Z"/><path d="M52,26a2,2,0,0,0-2-2H45.38A1.38,1.38,0,0,0,44,25.34v1.25A1.38,1.38,0,0,0,45.38,28H50A2,2,0,0,0,52,26Z"/><path d="M46.74,30a.74.74,0,0,0-.74.74V38a2,2,0,0,0,4,0V30.71a.74.74,0,0,0-.74-.74Z"/></svg>