<?xml version="1.0" encoding="iso-8859-1"?>
<!-- Generator: Adobe Illustrator 16.0.0, SVG Export Plug-In . SVG Version: 6.00 Build 0)  -->
<!DOCTYPE svg PUBLIC "-//W3C//DTD SVG 1.1//EN" "http://www.w3.org/Graphics/SVG/1.1/DTD/svg11.dtd">
<svg version="1.1" id="Capa_1" xmlns="http://www.w3.org/2000/svg" xmlns:xlink="http://www.w3.org/1999/xlink" x="0px" y="0px"
	 width="520.2px" height="520.2px" viewBox="0 0 520.2 520.2" style="enable-background:new 0 0 520.2 520.2;" xml:space="preserve"
	 fill='white'
	>
<g>
	<g>
		<path d="M248.625,116.663c0,11.475,9.562,19.125,19.125,19.125h95.625L248.625,1.913V116.663z"/>
		<path d="M508.725,89.888l-22.949-22.95c-15.301-15.3-38.25-15.3-53.551,0l-68.85,68.85l-19.125,19.125h-76.5
			c-21.038,0-38.25-17.212-38.25-38.25V1.913H38.25C17.212,1.913,0,19.125,0,40.163v439.875c0,21.037,17.212,38.25,38.25,38.25
			h286.875c21.037,0,38.25-17.213,38.25-38.25v-191.25l145.35-145.35C524.025,128.138,524.025,105.188,508.725,89.888z
			 M158.737,416.925l11.475-59.288l47.812,47.812L158.737,416.925z M233.325,392.063L183.6,342.337l214.2-214.2l49.726,49.725
			L233.325,392.063z M495.338,130.05l-32.513,32.512L413.1,112.837l32.513-32.512c7.65-7.65,19.125-7.65,26.775,0l22.95,22.95
			C502.987,110.925,502.987,122.4,495.338,130.05z"/>
	</g>
</g>
<g>
</g>
<g>
</g>
<g>
</g>
<g>
</g>
<g>
</g>
<g>
</g>
<g>
</g>
<g>
</g>
<g>
</g>
<g>
</g>
<g>
</g>
<g>
</g>
<g>
</g>
<g>
</g>
<g>
</g>
</svg>
