<?xml version="1.0" encoding="iso-8859-1"?>
<!-- Generator: Adobe Illustrator 16.0.0, SVG Export Plug-In . SVG Version: 6.00 Build 0)  -->
<!DOCTYPE svg PUBLIC "-//W3C//DTD SVG 1.1//EN" "http://www.w3.org/Graphics/SVG/1.1/DTD/svg11.dtd">
<svg version="1.1" id="Capa_1" xmlns="http://www.w3.org/2000/svg" xmlns:xlink="http://www.w3.org/1999/xlink" x="0px" y="0px"
	 width="516.375px" height="516.375px" viewBox="0 0 516.375 516.375" style="enable-background:new 0 0 516.375 516.375;"
	 xml:space="preserve"
	 fill= 'white'>
<g>
	<g>
		<rect x="57.375" y="210.375" width="38.25" height="19.125"/>
		<rect x="57.375" y="133.875" width="38.25" height="19.125"/>
		<rect x="57.375" y="57.375" width="38.25" height="19.125"/>
		<rect x="57.375" y="439.875" width="38.25" height="19.125"/>
		<rect x="57.375" y="286.875" width="38.25" height="19.125"/>
		<rect x="57.375" y="363.375" width="38.25" height="19.125"/>
		<path d="M420.75,0H133.875c-21.038,0-38.25,17.212-38.25,38.25v19.125h38.25V76.5h-38.25v57.375h38.25V153h-38.25v57.375h38.25
			V229.5h-38.25v57.375h38.25V306h-38.25v57.375h38.25V382.5h-38.25v57.375h38.25V459h-38.25v19.125
			c0,21.037,17.212,38.25,38.25,38.25H420.75c21.037,0,38.25-17.213,38.25-38.25V38.25C459,17.212,441.787,0,420.75,0z
			 M363.375,172.125H191.25V76.5h172.125V172.125z"/>
		<rect x="210.375" y="95.625" width="133.875" height="57.375"/>
	</g>
</g>
<g>
</g>
<g>
</g>
<g>
</g>
<g>
</g>
<g>
</g>
<g>
</g>
<g>
</g>
<g>
</g>
<g>
</g>
<g>
</g>
<g>
</g>
<g>
</g>
<g>
</g>
<g>
</g>
<g>
</g>
</svg>
